<mxfile>
    <diagram id="2PkIVKXhVr3V0LMg7nIn" name="페이지-1">
        <mxGraphModel dx="1710" dy="376" grid="1" gridSize="10" guides="1" tooltips="1" connect="1" arrows="1" fold="1" page="1" pageScale="1" pageWidth="1169" pageHeight="827" math="0" shadow="0">
            <root>
                <mxCell id="0"/>
                <mxCell id="1" parent="0"/>
                <mxCell id="100" value="" style="rounded=0;whiteSpace=wrap;html=1;fontFamily=Noto Sans KR;fontSource=https%3A%2F%2Ffonts.googleapis.com%2Fcss%3Ffamily%3DNoto%2BSans%2BKR;fontStyle=0" parent="1" vertex="1">
                    <mxGeometry x="160" y="170" width="950" height="320" as="geometry"/>
                </mxCell>
                <mxCell id="73" value="" style="rounded=1;whiteSpace=wrap;html=1;fontFamily=Noto Sans KR;fontSource=https%3A%2F%2Ffonts.googleapis.com%2Fcss%3Ffamily%3DNoto%2BSans%2BKR;fontStyle=0" parent="1" vertex="1">
                    <mxGeometry x="500" y="170" width="610" height="320" as="geometry"/>
                </mxCell>
                <mxCell id="98" style="rounded=0;orthogonalLoop=1;jettySize=auto;html=1;startArrow=openThin;startFill=0;endArrow=none;endFill=0;entryX=0;entryY=0.75;entryDx=0;entryDy=0;fontFamily=Noto Sans KR;fontSource=https%3A%2F%2Ffonts.googleapis.com%2Fcss%3Ffamily%3DNoto%2BSans%2BKR;fontStyle=0" parent="1" target="68" edge="1">
                    <mxGeometry relative="1" as="geometry">
                        <mxPoint x="-109.99999999999977" y="420" as="targetPoint"/>
                        <mxPoint x="-191" y="350" as="sourcePoint"/>
                    </mxGeometry>
                </mxCell>
                <mxCell id="68" value="" style="image;html=1;image=img/lib/clip_art/computers/Network_128x128.png;fontFamily=Noto Sans KR;fontSource=https%3A%2F%2Ffonts.googleapis.com%2Fcss%3Ffamily%3DNoto%2BSans%2BKR;fontStyle=0" parent="1" vertex="1">
                    <mxGeometry x="-20" y="290" width="80" height="80" as="geometry"/>
                </mxCell>
                <mxCell id="71" value="" style="aspect=fixed;html=1;points=[];align=center;image;fontSize=12;image=img/lib/mscae/Azure_Database_for_PostgreSQL_servers.svg;fontFamily=Noto Sans KR;fontSource=https%3A%2F%2Ffonts.googleapis.com%2Fcss%3Ffamily%3DNoto%2BSans%2BKR;fontStyle=0" parent="1" vertex="1">
                    <mxGeometry x="990" y="264" width="83.6" height="110" as="geometry"/>
                </mxCell>
                <mxCell id="74" value="" style="pointerEvents=1;shadow=0;dashed=0;html=1;strokeColor=none;labelPosition=center;verticalLabelPosition=bottom;verticalAlign=top;align=center;fillColor=#515151;shape=mxgraph.mscae.system_center.central_administration_site_sql;fontFamily=Noto Sans KR;fontSource=https%3A%2F%2Ffonts.googleapis.com%2Fcss%3Ffamily%3DNoto%2BSans%2BKR;fontStyle=0" parent="1" vertex="1">
                    <mxGeometry x="520" y="264" width="83.6" height="110" as="geometry"/>
                </mxCell>
                <mxCell id="76" value="" style="endArrow=classic;startArrow=none;html=1;startFill=0;fontFamily=Noto Sans KR;fontSource=https%3A%2F%2Ffonts.googleapis.com%2Fcss%3Ffamily%3DNoto%2BSans%2BKR;fontStyle=0" parent="1" edge="1">
                    <mxGeometry width="50" height="50" relative="1" as="geometry">
                        <mxPoint x="620" y="290" as="sourcePoint"/>
                        <mxPoint x="960" y="290" as="targetPoint"/>
                    </mxGeometry>
                </mxCell>
                <mxCell id="77" value="Java DAO" style="text;html=1;strokeColor=none;fillColor=none;align=center;verticalAlign=middle;whiteSpace=wrap;rounded=0;fontFamily=Noto Sans KR;fontSource=https%3A%2F%2Ffonts.googleapis.com%2Fcss%3Ffamily%3DNoto%2BSans%2BKR;fontStyle=0" parent="1" vertex="1">
                    <mxGeometry x="520" y="380" width="68.2" height="20" as="geometry"/>
                </mxCell>
                <mxCell id="78" value="Postgre&lt;br&gt;DB" style="text;html=1;strokeColor=none;fillColor=none;align=center;verticalAlign=middle;whiteSpace=wrap;rounded=0;fontFamily=Noto Sans KR;fontSource=https%3A%2F%2Ffonts.googleapis.com%2Fcss%3Ffamily%3DNoto%2BSans%2BKR;fontStyle=0" parent="1" vertex="1">
                    <mxGeometry x="1011.8" y="380" width="40" height="20" as="geometry"/>
                </mxCell>
                <mxCell id="79" value="사용자 Request 처리&lt;br&gt;및 DB 요청" style="text;html=1;align=center;verticalAlign=middle;resizable=0;points=[];autosize=1;fontFamily=Noto Sans KR;fontSource=https%3A%2F%2Ffonts.googleapis.com%2Fcss%3Ffamily%3DNoto%2BSans%2BKR;fontStyle=0" parent="1" vertex="1">
                    <mxGeometry x="735" y="260" width="120" height="30" as="geometry"/>
                </mxCell>
                <mxCell id="81" value="" style="endArrow=classic;startArrow=none;html=1;startFill=0;fontFamily=Noto Sans KR;fontSource=https%3A%2F%2Ffonts.googleapis.com%2Fcss%3Ffamily%3DNoto%2BSans%2BKR;fontStyle=0" parent="1" edge="1">
                    <mxGeometry width="50" height="50" relative="1" as="geometry">
                        <mxPoint x="960" y="360" as="sourcePoint"/>
                        <mxPoint x="630" y="360" as="targetPoint"/>
                    </mxGeometry>
                </mxCell>
                <mxCell id="82" value="DB Query 결과 응답" style="text;html=1;align=center;verticalAlign=middle;resizable=0;points=[];autosize=1;fontFamily=Noto Sans KR;fontSource=https%3A%2F%2Ffonts.googleapis.com%2Fcss%3Ffamily%3DNoto%2BSans%2BKR;fontStyle=0" parent="1" vertex="1">
                    <mxGeometry x="735" y="360" width="120" height="20" as="geometry"/>
                </mxCell>
                <mxCell id="83" value="" style="rounded=1;whiteSpace=wrap;html=1;fontFamily=Noto Sans KR;fontSource=https%3A%2F%2Ffonts.googleapis.com%2Fcss%3Ffamily%3DNoto%2BSans%2BKR;fontStyle=0" parent="1" vertex="1">
                    <mxGeometry x="160" y="170" width="170" height="320" as="geometry"/>
                </mxCell>
                <mxCell id="85" value="" style="pointerEvents=1;shadow=0;dashed=0;html=1;strokeColor=none;labelPosition=center;verticalLabelPosition=bottom;verticalAlign=top;align=center;fillColor=#515151;shape=mxgraph.mscae.enterprise.database_server;fontFamily=Noto Sans KR;fontSource=https%3A%2F%2Ffonts.googleapis.com%2Fcss%3Ffamily%3DNoto%2BSans%2BKR;fontStyle=0" parent="1" vertex="1">
                    <mxGeometry x="210" y="282" width="80.56" height="106" as="geometry"/>
                </mxCell>
                <mxCell id="86" value="JSP 페이지" style="text;html=1;strokeColor=none;fillColor=none;align=center;verticalAlign=middle;whiteSpace=wrap;rounded=0;fontFamily=Noto Sans KR;fontSource=https%3A%2F%2Ffonts.googleapis.com%2Fcss%3Ffamily%3DNoto%2BSans%2BKR;fontStyle=0" parent="1" vertex="1">
                    <mxGeometry x="216.18" y="394" width="68.2" height="20" as="geometry"/>
                </mxCell>
                <mxCell id="87" value="" style="pointerEvents=1;shadow=0;dashed=0;html=1;strokeColor=none;labelPosition=center;verticalLabelPosition=bottom;verticalAlign=top;align=center;fillColor=#505050;shape=mxgraph.mscae.intune.account_portal;fontFamily=Noto Sans KR;fontSource=https%3A%2F%2Ffonts.googleapis.com%2Fcss%3Ffamily%3DNoto%2BSans%2BKR;fontStyle=0" parent="1" vertex="1">
                    <mxGeometry x="-260" y="290" width="65.36" height="76" as="geometry"/>
                </mxCell>
                <mxCell id="88" value="" style="endArrow=classic;startArrow=none;html=1;startFill=0;exitX=1;exitY=0.25;exitDx=0;exitDy=0;entryX=0;entryY=0.344;entryDx=0;entryDy=0;entryPerimeter=0;fontFamily=Noto Sans KR;fontSource=https%3A%2F%2Ffonts.googleapis.com%2Fcss%3Ffamily%3DNoto%2BSans%2BKR;fontStyle=0" parent="1" source="83" target="73" edge="1">
                    <mxGeometry width="50" height="50" relative="1" as="geometry">
                        <mxPoint x="179.99999999999955" y="580" as="sourcePoint"/>
                        <mxPoint x="440" y="293" as="targetPoint"/>
                    </mxGeometry>
                </mxCell>
                <mxCell id="89" value="사용자 Request&lt;br&gt;Query" style="text;html=1;align=center;verticalAlign=middle;resizable=0;points=[];autosize=1;fontFamily=Noto Sans KR;fontSource=https%3A%2F%2Ffonts.googleapis.com%2Fcss%3Ffamily%3DNoto%2BSans%2BKR;fontStyle=0" parent="1" vertex="1">
                    <mxGeometry x="370" y="234" width="100" height="30" as="geometry"/>
                </mxCell>
                <mxCell id="90" value="" style="endArrow=classic;startArrow=none;html=1;startFill=0;entryX=1;entryY=0.75;entryDx=0;entryDy=0;exitX=0;exitY=0.657;exitDx=0;exitDy=0;exitPerimeter=0;fontFamily=Noto Sans KR;fontSource=https%3A%2F%2Ffonts.googleapis.com%2Fcss%3Ffamily%3DNoto%2BSans%2BKR;fontStyle=0" parent="1" source="73" target="83" edge="1">
                    <mxGeometry width="50" height="50" relative="1" as="geometry">
                        <mxPoint x="430" y="378" as="sourcePoint"/>
                        <mxPoint x="510" y="302.8800000000001" as="targetPoint"/>
                    </mxGeometry>
                </mxCell>
                <mxCell id="91" value="DB response&lt;br&gt;Java Object로&lt;br&gt;전송 받음" style="text;html=1;align=center;verticalAlign=middle;resizable=0;points=[];autosize=1;fontFamily=Noto Sans KR;fontSource=https%3A%2F%2Ffonts.googleapis.com%2Fcss%3Ffamily%3DNoto%2BSans%2BKR;fontStyle=0" parent="1" vertex="1">
                    <mxGeometry x="380" y="394" width="90" height="50" as="geometry"/>
                </mxCell>
                <mxCell id="92" value="" style="endArrow=classic;html=1;entryX=-0.014;entryY=0.175;entryDx=0;entryDy=0;entryPerimeter=0;exitX=1.013;exitY=0.175;exitDx=0;exitDy=0;exitPerimeter=0;fontFamily=Noto Sans KR;fontSource=https%3A%2F%2Ffonts.googleapis.com%2Fcss%3Ffamily%3DNoto%2BSans%2BKR;fontStyle=0" parent="1" source="87" target="68" edge="1">
                    <mxGeometry width="50" height="50" relative="1" as="geometry">
                        <mxPoint x="-180" y="304" as="sourcePoint"/>
                        <mxPoint x="370" y="250" as="targetPoint"/>
                    </mxGeometry>
                </mxCell>
                <mxCell id="93" value="사용자의 웹페이지 접속" style="text;html=1;align=center;verticalAlign=middle;resizable=0;points=[];autosize=1;fontFamily=Noto Sans KR;fontSource=https%3A%2F%2Ffonts.googleapis.com%2Fcss%3Ffamily%3DNoto%2BSans%2BKR;fontStyle=0" parent="1" vertex="1">
                    <mxGeometry x="-165" y="282" width="130" height="20" as="geometry"/>
                </mxCell>
                <mxCell id="94" value="" style="endArrow=classic;html=1;fontFamily=Noto Sans KR;fontSource=https%3A%2F%2Ffonts.googleapis.com%2Fcss%3Ffamily%3DNoto%2BSans%2BKR;fontStyle=0" parent="1" edge="1">
                    <mxGeometry width="50" height="50" relative="1" as="geometry">
                        <mxPoint x="60" y="300" as="sourcePoint"/>
                        <mxPoint x="160" y="300" as="targetPoint"/>
                    </mxGeometry>
                </mxCell>
                <mxCell id="95" value="Apache Tomcat&lt;br&gt;접속 처리" style="text;html=1;align=center;verticalAlign=middle;resizable=0;points=[];autosize=1;fontFamily=Noto Sans KR;fontSource=https%3A%2F%2Ffonts.googleapis.com%2Fcss%3Ffamily%3DNoto%2BSans%2BKR;fontStyle=0" parent="1" vertex="1">
                    <mxGeometry x="60" y="344" width="100" height="30" as="geometry"/>
                </mxCell>
                <mxCell id="97" value="" style="endArrow=classic;html=1;exitX=0;exitY=0.523;exitDx=0;exitDy=0;entryX=1.012;entryY=0.597;entryDx=0;entryDy=0;entryPerimeter=0;exitPerimeter=0;fontFamily=Noto Sans KR;fontSource=https%3A%2F%2Ffonts.googleapis.com%2Fcss%3Ffamily%3DNoto%2BSans%2BKR;fontStyle=0" parent="1" source="100" target="68" edge="1">
                    <mxGeometry width="50" height="50" relative="1" as="geometry">
                        <mxPoint x="-185.03215999999998" y="318.01200000000006" as="sourcePoint"/>
                        <mxPoint x="-11.11999999999989" y="314" as="targetPoint"/>
                    </mxGeometry>
                </mxCell>
                <mxCell id="99" value="장소 추천 결과&lt;br&gt;받아봄" style="text;html=1;align=center;verticalAlign=middle;resizable=0;points=[];autosize=1;fontFamily=Noto Sans KR;fontSource=https%3A%2F%2Ffonts.googleapis.com%2Fcss%3Ffamily%3DNoto%2BSans%2BKR;fontStyle=0" parent="1" vertex="1">
                    <mxGeometry x="-165" y="350" width="90" height="30" as="geometry"/>
                </mxCell>
                <mxCell id="101" value="리눅스 서버" style="text;html=1;align=center;verticalAlign=middle;resizable=0;points=[];autosize=1;fontFamily=Noto Sans KR;fontSource=https%3A%2F%2Ffonts.googleapis.com%2Fcss%3Ffamily%3DNoto%2BSans%2BKR;fontStyle=0" parent="1" vertex="1">
                    <mxGeometry x="335" y="490" width="70" height="20" as="geometry"/>
                </mxCell>
                <mxCell id="102" value="" style="points=[[0,0,0],[0.25,0,0],[0.5,0,0],[0.75,0,0],[1,0,0],[0,1,0],[0.25,1,0],[0.5,1,0],[0.75,1,0],[1,1,0],[0,0.25,0],[0,0.5,0],[0,0.75,0],[1,0.25,0],[1,0.5,0],[1,0.75,0]];outlineConnect=0;fontColor=#232F3E;gradientColor=#945DF2;gradientDirection=north;fillColor=#5A30B5;strokeColor=#ffffff;dashed=0;verticalLabelPosition=bottom;verticalAlign=top;align=center;html=1;fontSize=12;fontStyle=0;aspect=fixed;shape=mxgraph.aws4.resourceIcon;resIcon=mxgraph.aws4.cloud_map;fontFamily=Noto Sans KR;fontSource=https%3A%2F%2Ffonts.googleapis.com%2Fcss%3Ffamily%3DNoto%2BSans%2BKR;" parent="1" vertex="1">
                    <mxGeometry x="195.28" y="620" width="110" height="110" as="geometry"/>
                </mxCell>
                <mxCell id="103" value="" style="endArrow=classic;html=1;exitX=0.25;exitY=1;exitDx=0;exitDy=0;entryX=0.07;entryY=0;entryDx=0;entryDy=0;entryPerimeter=0;fontFamily=Noto Sans KR;fontSource=https%3A%2F%2Ffonts.googleapis.com%2Fcss%3Ffamily%3DNoto%2BSans%2BKR;fontStyle=0" parent="1" source="83" target="102" edge="1">
                    <mxGeometry width="50" height="50" relative="1" as="geometry">
                        <mxPoint x="30" y="570" as="sourcePoint"/>
                        <mxPoint x="203" y="610" as="targetPoint"/>
                    </mxGeometry>
                </mxCell>
                <mxCell id="104" value="" style="endArrow=classic;html=1;exitX=0.838;exitY=0;exitDx=0;exitDy=0;entryX=0.75;entryY=1;entryDx=0;entryDy=0;exitPerimeter=0;fontFamily=Noto Sans KR;fontSource=https%3A%2F%2Ffonts.googleapis.com%2Fcss%3Ffamily%3DNoto%2BSans%2BKR;fontStyle=0" parent="1" source="102" target="83" edge="1">
                    <mxGeometry width="50" height="50" relative="1" as="geometry">
                        <mxPoint x="212.5" y="500" as="sourcePoint"/>
                        <mxPoint x="212.98000000000025" y="630" as="targetPoint"/>
                    </mxGeometry>
                </mxCell>
                <mxCell id="105" value="카카오 지도 API" style="text;html=1;align=center;verticalAlign=middle;resizable=0;points=[];autosize=1;" vertex="1" parent="1">
                    <mxGeometry x="200.28" y="730" width="100" height="20" as="geometry"/>
                </mxCell>
                <mxCell id="106" value="상호명으로&lt;br&gt;주소 요청" style="text;html=1;align=center;verticalAlign=middle;resizable=0;points=[];autosize=1;" vertex="1" parent="1">
                    <mxGeometry x="130" y="550" width="80" height="30" as="geometry"/>
                </mxCell>
                <mxCell id="107" value="주소 데이터&lt;br&gt;JSON 응답" style="text;html=1;align=center;verticalAlign=middle;resizable=0;points=[];autosize=1;" vertex="1" parent="1">
                    <mxGeometry x="284.38" y="560" width="80" height="30" as="geometry"/>
                </mxCell>
            </root>
        </mxGraphModel>
    </diagram>
</mxfile>
